<svg width="512" height="513" viewBox="0 0 512 513" fill="none" xmlns="http://www.w3.org/2000/svg">
<g clip-path="url(#clip0)">
<rect width="512" height="512.002" fill="#999999"/>
<path d="M256.5 322C290.432 322 319.815 309.879 343.822 285.964C367.83 262.053 380 232.796 380 198.996C380 165.208 367.83 135.947 343.818 112.028C319.807 88.1212 290.428 76 256.5 76C222.564 76 193.189 88.1212 169.182 112.032C145.174 135.943 133 165.204 133 198.996C133 232.796 145.174 262.057 169.185 285.968C193.197 309.875 222.576 322 256.5 322V322Z" fill="white"/>
<path d="M468.965 489.666C468.274 479.602 466.876 468.624 464.818 457.031C462.741 445.352 460.066 434.311 456.864 424.22C453.557 413.79 449.059 403.49 443.498 393.619C437.727 383.374 430.949 374.453 423.342 367.112C415.388 359.432 405.65 353.258 394.388 348.754C383.166 344.274 370.73 342.004 357.426 342.004C352.202 342.004 347.149 344.167 337.391 350.578C331.385 354.53 324.361 359.101 316.52 364.157C309.815 368.468 300.733 372.506 289.515 376.163C278.57 379.737 267.457 381.55 256.488 381.55C245.52 381.55 234.411 379.737 223.454 376.163C212.247 372.51 203.165 368.471 196.468 364.161C188.702 359.152 181.673 354.582 175.578 350.574C165.832 344.163 160.775 342 155.551 342C142.243 342 129.81 344.274 118.592 348.758C107.339 353.254 97.5962 359.428 89.6344 367.116C82.0319 374.461 75.2493 383.378 69.4859 393.619C63.9295 403.49 59.4312 413.786 56.12 424.224C52.922 434.315 50.2472 445.352 48.1699 457.031C46.1121 468.608 44.7142 479.59 44.023 489.677C43.3436 499.56 43 509.817 43 520.176C43 547.136 51.4928 568.962 68.2403 585.058C84.7808 600.942 106.667 609 133.282 609H379.718C406.333 609 428.211 600.946 444.756 585.058C461.507 568.974 470 547.144 470 520.172C469.996 509.766 469.649 499.501 468.965 489.666V489.666Z" fill="white"/>
</g>
<defs>
<clipPath id="clip0">
<rect width="512" height="512.002" fill="white"/>
</clipPath>
</defs>
</svg>
